# xmcd
#
# Track frame offsets:
#	150
#	12029
#	31438
#	44027
#	58346
#	71075
#	82925
#	99515
#	111705
#	122602
#
# Disc length: 1841 seconds
#
# Revision: 0
# Processed by: cddbd v1.5.2PL0 Copyright (c) Steve Scherf et al.
# Submitted via: EasyCDDAExtractor 8.2.3.1
#
DISCID=8b072f0a
DTITLE=Kenny Chesney - All I Need To Know
DYEAR=1995
DGENRE=Country
TTITLE0=Fall In Love
TTITLE1=Granpa Toll Me So
TTITLE2=The Bigger The Fool (The Harder They Fall)
TTITLE3=All I Need To Know
TTITLE4=Honey Would You Stand By Me
TTITLE5=Someone Else's Hog
TTITLE6=You And Me
TTITLE7=Between Midnight And Daylight
TTITLE8=Paris  Tennessee
TTITLE9=The Tin Mam
EXTD=
EXTT0=
EXTT1=
EXTT2=
EXTT3=
EXTT4=
EXTT5=
EXTT6=
EXTT7=
EXTT8=
EXTT9=
PLAYORDER=
